# xmcd CD database file
#
# Track frame offsets:
#	150
#	18835
#	41168
#	58238
#	72698
#	88784
#	107565
#	123540
#	145681
#	174565
#	186795
#	203073
#	208471
#	231491
#	244982
#
# Disc length: 3485 seconds
#
# Revision: 0
# Processed by: cddbd v1.5.2PL0 Copyright (c) Steve Scherf et al.
# Submitted via: CDex 1.51
#
DISCID=ea0d9b0f
DTITLE=Hugh Laurie - Let them talk
DYEAR=2011
DGENRE=Jazz
TTITLE0=After You've Gone
TTITLE1=Baby Please Make a Change
TTITLE2=Battle of Jericho
TTITLE3=Buddy Bolden's Blues
TTITLE4=John Henry
TTITLE5=Let Them Talk
TTITLE6=Police Dog Blues
TTITLE7=Six Cold Feet
TTITLE8=St James Infirmary
TTITLE9=Swanee River
TTITLE10=The Whale Has Swallowed Me
TTITLE11=They're Red Hot
TTITLE12=Tipitina
TTITLE13=Winin' Boy Blues
TTITLE14=You Don't Know My Mind
EXTD=YEAR: 2011
EXTT0=
EXTT1=
EXTT2=
EXTT3=
EXTT4=
EXTT5=
EXTT6=
EXTT7=
EXTT8=
EXTT9=
EXTT10=
EXTT11=
EXTT12=
EXTT13=
EXTT14=
PLAYORDER=
